<svg version="1.1" id="レイヤー_1" xmlns="http://www.w3.org/2000/svg" x="0px" y="0px" viewBox="0 0 68.1 15.7" style="enable-background:new 0 0 68.1 15.7;" xml:space="preserve">
  <style type="text/css">
    .st0{fill-rule:evenodd;clip-rule:evenodd;fill:#FFFFFF;}
  </style>
  <path class="st0" d="M63.8,5.4c2.1,0,4.3,1.3,4.3,4.1c0,3.4-3.3,4.9-5.9,4.9c-2,0-4-0.8-4-2.7c0-1.5,1.4-2.5,3.1-2.5
    c1.5,0,3,0.8,3.3,2.3c1-0.5,1-1.7,1-1.8c0-0.4-0.1-2.3-2.5-2.3c-2.6,0-4.1,1.5-6.3,3.8l-1.9-1.8c1.8-1.2,5.3-4.7,6.3-6.1
    c-0.5,0.1-1,0.2-4.1,0.5l-0.4-2.4c0.6,0,5.1,0.1,7.8-1l1.2,1.7c-1.1,0.7-3.5,3.1-3.8,3.5C62.2,5.6,62.9,5.4,63.8,5.4z M61,11.2
    c-0.5,0-0.7,0.3-0.7,0.6c0,0.6,0.9,0.8,1.4,0.8c0.4,0,0.6-0.1,0.8-0.1C62.3,11.4,61.5,11.2,61,11.2z M45.5,14.2
    c-3.6,0-3.6-2.9-3.6-5.7c0-1,0.1-5.7,0.1-6.6c0-0.5,0-1,0-1.5l2.8,0.4c0.2,0,0.3,0.1,0.3,0.2c0,0,0,0.2-0.4,0.3
    c-0.2,1-0.5,4.3-0.5,7.4c0,1.7,0,2.9,1.6,2.9c2.2,0,4.5-2.6,5.4-4.4c0.6,0.8,1.2,1.6,1.8,2.1C52.1,10.6,49.3,14.2,45.5,14.2z
     M51.3,3.4C51,3,50.1,2.1,49.6,1.7l1-1c1.1,0.9,1.5,1.3,1.8,1.7c-0.1,0.1-0.7,0.6-0.8,0.7C51.5,3.2,51.4,3.3,51.3,3.4z M49.8,4.9
    c-0.7-0.8-1.1-1.2-1.8-1.7l1.1-1.1c0.2,0.1,1.2,1,1.8,1.8C50.6,4.1,50.3,4.4,49.8,4.9z M34.7,14.5c-0.4-1.4-0.5-1.7-0.7-2.1
    c0.3,0,0.8,0.1,1,0.1c0.5,0,0.5-0.1,0.5-0.4V5.9H31V0.6h6.6v11.8C37.6,14,37.2,14.6,34.7,14.5z M35.4,2.1h-2.4v0.5h2.4V2.1z
     M35.4,3.8h-2.4v0.6h2.4V3.8z M32.7,6c0.1,0,0.3,0,0.3,0.2s-0.1,0.2-0.4,0.3v0.7h2.5v1.9h-2.5l0.1,3.7c0,1.6-0.9,1.6-2.9,1.6
    c-0.1-0.6-0.4-1.4-0.7-2.1c0.3,0,0.8,0.2,1.1,0.2c0.3,0,0.3-0.1,0.3-0.4l0-1.6c-1,1.1-2.4,2.3-3.3,2.8c-0.4-0.3-0.8-0.7-1.4-1.1v2.2
    h-2.1v-14h6.6v5.3h-4.5v6c0.1,0,1.7-0.9,3.3-2.8h-2.9V7.2h4.2l0-1.3L32.7,6z M28.1,2.1h-2.3v0.5h2.3V2.1z M28.1,4.4V3.8h-2.3v0.6
    H28.1z M15,15.7L7.9,8.6l-7.1,7.1L0,15l7.1-7.1L0,0.7L0.7,0l7.1,7.1L15,0l0.7,0.7L8.6,7.9l7.1,7.1L15,15.7z"/>
</svg>
