<svg xmlns="http://www.w3.org/2000/svg" viewBox="0 0 186 195">
  <defs><style>.cls-1{fill:#040000;opacity:0.7;}.cls-2{fill:#fff;}</style></defs><title>menu</title><g id="レイヤー_2" data-name="レイヤー 2"><g id="レイヤー_1-2" data-name="レイヤー 1"><path class="cls-1" d="M15,0H186a0,0,0,0,1,0,0V195a0,0,0,0,1,0,0H15A15,15,0,0,1,0,180V15A15,15,0,0,1,15,0Z"/><rect class="cls-2" x="43.5" y="29.47" width="99" height="18" rx="9"/><rect class="cls-2" x="43.5" y="66.16" width="99" height="18" rx="9"/><rect class="cls-2" x="43.5" y="102.02" width="99" height="18" rx="9"/><path class="cls-2" d="M60.59,145a24.64,24.64,0,0,0-1.27,2.77,44.09,44.09,0,0,1-4.2,8.45,78.05,78.05,0,0,1,7.4,6.83l-3.2,3.57a62.38,62.38,0,0,0-6.87-6.83,38.88,38.88,0,0,1-11.56,9.6l-3.57-3.2A34,34,0,0,0,49.13,157a81.73,81.73,0,0,0-8.33-5.87l2.67-3.2c2.49,1.55,5.69,3.73,8.21,5.59a34,34,0,0,0,3.41-7.36,23.58,23.58,0,0,0,.75-2.86Z"/><path class="cls-2" d="M68.08,161.89c1.21.09,2.67.22,3.88.22H89.79a30.2,30.2,0,0,0,3.42-.22v4.75c-1.09-.12-2.49-.18-3.42-.18H72c-1.21,0-2.74.09-3.88.18Zm2.6-15.19c1.12.12,2.58.19,3.64.19H87.18c1.24,0,2.58-.1,3.45-.19v4.5c-.9,0-2.36-.12-3.45-.12H74.35c-1.18,0-2.61.06-3.67.12Z"/><path class="cls-2" d="M120.2,164.41c.81,0,2.24,0,3-.13v4c-.63,0-2.15-.09-3-.09H103.92c-1.12,0-1.89,0-3.07.09v-4a28,28,0,0,0,3.07.16H114c.43-2.64,1.12-7,1.21-8.79h-8.39c-1,0-2.2.09-3.11.15v-4.1c.81.09,2.24.19,3.08.19h8a7.23,7.23,0,0,0,2.33-.35l3,1.46a8.11,8.11,0,0,0-.31,1.31c-.25,1.83-1.06,7.18-1.53,10.13Z"/><path class="cls-2" d="M130.39,153.41c1.12.09,3.38.19,5,.19h16.68c1.43,0,2.83-.13,3.64-.19v4.88c-.75,0-2.33-.16-3.64-.16H135.39c-1.77,0-3.85.06-5,.16Z"/></g></g>
</svg>